<?xml version="1.0" encoding="UTF-8" standalone="no"?> 
<svg width="512" height="512" viewBox="25 100 460 320" fill="none" xmlns="http://www.w3.org/2000/svg">
<path fill-rule="evenodd" clip-rule="evenodd" d="M403.925 101.027C386.671 85.8797 363.835 76.6612 338.791 76.6612C285.007 76.6612 241.407 119.179 241.407 171.627C241.407 175.801 241.683 179.912 242.218 183.944C163.488 182.089 91.2403 144.813 46.7648 87.8545C41.2252 100.949 38.1692 115.297 38.1692 130.341C38.1692 164.875 54.2715 195.741 79.5538 216.19C64.6142 214.312 50.6504 209.397 38.3346 202.101C40.8639 247.396 73.3397 284.92 116.79 296.171C107.907 298.426 98.5884 299.625 88.9823 299.625C83.0143 299.625 77.1572 299.162 71.4467 298.271C86.3083 334.411 120.741 360.84 161.959 365.089C132.628 391.108 93.6509 406.969 50.8753 406.969C44.4925 406.969 38.1942 406.615 32 405.928C71.335 427.62 116.783 440 165.196 440C314.856 440 436.179 321.69 436.179 175.748C436.179 174.84 436.175 173.933 436.165 173.028C436.172 172.561 436.176 172.094 436.176 171.627C436.176 169.608 436.111 167.605 435.984 165.618C435.977 165.438 435.97 165.258 435.962 165.078C454.348 153.801 469.562 138.056 480 119.404C465.702 127.014 449.739 132.021 432.78 133.774C432.625 132.832 432.466 131.892 432.302 130.953C451.175 115.762 465.473 95.3571 472.875 72C454.248 88.2587 430.317 98.8582 403.925 101.027Z" fill="#1DA1F2"/>
</svg>
